STARTFONT 2.1 
SIZE 16 96 96
FONTBOUNDINGBOX 8 16 0 -1
STARTPROPERTIES 15
FONTNAME_REGISTRY ""
FOUNDRY ""
FAMILY_NAME "Atascii-character-set-00toFF-2x.bmp"
WEIGHT_NAME "Normal"
SLANT "R"
SETWIDTH_NAME "Normal"
ADD_STYLE_NAME "Regular"
PIXEL_SIZE 16
CHARSET_REGISTRY "ISO8859"
CHARSET_ENCODING "1"
FONT_ASCENT 15
FONT_DESCENT 1
COPYRIGHT "Converted from BMP"
FACE_NAME "Atascii-character-set-00toFF-2x.bmp"
ENDPROPERTIES
CHARS 256
STARTCHAR 0
ENCODING 0
SWIDTH 8000 0
DWIDTH 8 0
BBX 8 16 0 -1
BITMAP
00
00
36
36
7F
7F
7F
7F
3E
3E
1C
1C
08
08
00
00
ENDCHAR
STARTCHAR 1
ENCODING 1
SWIDTH 8000 0
DWIDTH 8 0
BBX 8 16 0 -1
BITMAP
18
18
18
18
18
18
1F
1F
1F
1F
18
18
18
18
18
18
ENDCHAR
STARTCHAR 2
ENCODING 2
SWIDTH 8000 0
DWIDTH 8 0
BBX 8 16 0 -1
BITMAP
03
03
03
03
03
03
03
03
03
03
03
03
03
03
03
03
ENDCHAR
STARTCHAR 3
ENCODING 3
SWIDTH 8000 0
DWIDTH 8 0
BBX 8 16 0 -1
BITMAP
18
18
18
18
18
18
F8
F8
F8
F8
00
00
00
00
00
00
ENDCHAR
STARTCHAR 4
ENCODING 4
SWIDTH 8000 0
DWIDTH 8 0
BBX 8 16 0 -1
BITMAP
18
18
18
18
18
18
F8
F8
F8
F8
18
18
18
18
18
18
ENDCHAR
STARTCHAR 5
ENCODING 5
SWIDTH 8000 0
DWIDTH 8 0
BBX 8 16 0 -1
BITMAP
00
00
00
00
00
00
F8
F8
F8
F8
18
18
18
18
18
18
ENDCHAR
STARTCHAR 6
ENCODING 6
SWIDTH 8000 0
DWIDTH 8 0
BBX 8 16 0 -1
BITMAP
03
03
07
07
0E
0E
1C
1C
38
38
70
70
E0
E0
C0
C0
ENDCHAR
STARTCHAR 7
ENCODING 7
SWIDTH 8000 0
DWIDTH 8 0
BBX 8 16 0 -1
BITMAP
C0
C0
E0
E0
70
70
38
38
1C
1C
0E
0E
07
07
03
03
ENDCHAR
STARTCHAR 8
ENCODING 8
SWIDTH 8000 0
DWIDTH 8 0
BBX 8 16 0 -1
BITMAP
01
01
03
03
07
07
0F
0F
1F
1F
3F
3F
7F
7F
FF
FF
ENDCHAR
STARTCHAR 9
ENCODING 9
SWIDTH 8000 0
DWIDTH 8 0
BBX 8 16 0 -1
BITMAP
00
00
00
00
00
00
00
00
0F
0F
0F
0F
0F
0F
0F
0F
ENDCHAR
STARTCHAR 10
ENCODING 10
SWIDTH 8000 0
DWIDTH 8 0
BBX 8 16 0 -1
BITMAP
80
80
C0
C0
E0
E0
F0
F0
F8
F8
FC
FC
FE
FE
FF
FF
ENDCHAR
STARTCHAR 11
ENCODING 11
SWIDTH 8000 0
DWIDTH 8 0
BBX 8 16 0 -1
BITMAP
0F
0F
0F
0F
0F
0F
0F
0F
00
00
00
00
00
00
00
00
ENDCHAR
STARTCHAR 12
ENCODING 12
SWIDTH 8000 0
DWIDTH 8 0
BBX 8 16 0 -1
BITMAP
F0
F0
F0
F0
F0
F0
F0
F0
00
00
00
00
00
00
00
00
ENDCHAR
STARTCHAR 13
ENCODING 13
SWIDTH 8000 0
DWIDTH 8 0
BBX 8 16 0 -1
BITMAP
FF
FF
FF
FF
00
00
00
00
00
00
00
00
00
00
00
00
ENDCHAR
STARTCHAR 14
ENCODING 14
SWIDTH 8000 0
DWIDTH 8 0
BBX 8 16 0 -1
BITMAP
00
00
00
00
00
00
00
00
00
00
00
00
FF
FF
FF
FF
ENDCHAR
STARTCHAR 15
ENCODING 15
SWIDTH 8000 0
DWIDTH 8 0
BBX 8 16 0 -1
BITMAP
00
00
00
00
00
00
00
00
F0
F0
F0
F0
F0
F0
F0
F0
ENDCHAR
STARTCHAR 16
ENCODING 16
SWIDTH 8000 0
DWIDTH 8 0
BBX 8 16 0 -1
BITMAP
00
00
1C
1C
1C
1C
77
77
77
77
08
08
1C
1C
00
00
ENDCHAR
STARTCHAR 17
ENCODING 17
SWIDTH 8000 0
DWIDTH 8 0
BBX 8 16 0 -1
BITMAP
00
00
00
00
00
00
1F
1F
1F
1F
18
18
18
18
18
18
ENDCHAR
STARTCHAR 18
ENCODING 18
SWIDTH 8000 0
DWIDTH 8 0
BBX 8 16 0 -1
BITMAP
00
00
00
00
00
00
FF
FF
FF
FF
00
00
00
00
00
00
ENDCHAR
STARTCHAR 19
ENCODING 19
SWIDTH 8000 0
DWIDTH 8 0
BBX 8 16 0 -1
BITMAP
18
18
18
18
18
18
FF
FF
FF
FF
18
18
18
18
18
18
ENDCHAR
STARTCHAR 20
ENCODING 20
SWIDTH 8000 0
DWIDTH 8 0
BBX 8 16 0 -1
BITMAP
00
00
00
00
3C
3C
7E
7E
7E
7E
7E
7E
3C
3C
00
00
ENDCHAR
STARTCHAR 21
ENCODING 21
SWIDTH 8000 0
DWIDTH 8 0
BBX 8 16 0 -1
BITMAP
00
00
00
00
00
00
00
00
FF
FF
FF
FF
FF
FF
FF
FF
ENDCHAR
STARTCHAR 22
ENCODING 22
SWIDTH 8000 0
DWIDTH 8 0
BBX 8 16 0 -1
BITMAP
C0
C0
C0
C0
C0
C0
C0
C0
C0
C0
C0
C0
C0
C0
C0
C0
ENDCHAR
STARTCHAR 23
ENCODING 23
SWIDTH 8000 0
DWIDTH 8 0
BBX 8 16 0 -1
BITMAP
00
00
00
00
00
00
FF
FF
FF
FF
18
18
18
18
18
18
ENDCHAR
STARTCHAR 24
ENCODING 24
SWIDTH 8000 0
DWIDTH 8 0
BBX 8 16 0 -1
BITMAP
18
18
18
18
18
18
FF
FF
FF
FF
00
00
00
00
00
00
ENDCHAR
STARTCHAR 25
ENCODING 25
SWIDTH 8000 0
DWIDTH 8 0
BBX 8 16 0 -1
BITMAP
F0
F0
F0
F0
F0
F0
F0
F0
F0
F0
F0
F0
F0
F0
F0
F0
ENDCHAR
STARTCHAR 26
ENCODING 26
SWIDTH 8000 0
DWIDTH 8 0
BBX 8 16 0 -1
BITMAP
18
18
18
18
18
18
1F
1F
1F
1F
00
00
00
00
00
00
ENDCHAR
STARTCHAR 27
ENCODING 27
SWIDTH 8000 0
DWIDTH 8 0
BBX 8 16 0 -1
BITMAP
78
78
60
60
78
78
60
60
7E
7E
18
18
1E
1E
00
00
ENDCHAR
STARTCHAR 28
ENCODING 28
SWIDTH 8000 0
DWIDTH 8 0
BBX 8 16 0 -1
BITMAP
00
00
18
18
3C
3C
7E
7E
18
18
18
18
18
18
00
00
ENDCHAR
STARTCHAR 29
ENCODING 29
SWIDTH 8000 0
DWIDTH 8 0
BBX 8 16 0 -1
BITMAP
00
00
18
18
18
18
18
18
7E
7E
3C
3C
18
18
00
00
ENDCHAR
STARTCHAR 30
ENCODING 30
SWIDTH 8000 0
DWIDTH 8 0
BBX 8 16 0 -1
BITMAP
00
00
18
18
30
30
7E
7E
30
30
18
18
00
00
00
00
ENDCHAR
STARTCHAR 31
ENCODING 31
SWIDTH 8000 0
DWIDTH 8 0
BBX 8 16 0 -1
BITMAP
00
00
18
18
0C
0C
7E
7E
0C
0C
18
18
00
00
00
00
ENDCHAR
STARTCHAR 32
ENCODING 32
SWIDTH 8000 0
DWIDTH 8 0
BBX 8 16 0 -1
BITMAP
00
00
00
00
00
00
00
00
00
00
00
00
00
00
00
00
ENDCHAR
STARTCHAR 33
ENCODING 33
SWIDTH 8000 0
DWIDTH 8 0
BBX 8 16 0 -1
BITMAP
00
00
18
18
18
18
18
18
18
18
00
00
18
18
00
00
ENDCHAR
STARTCHAR 34
ENCODING 34
SWIDTH 8000 0
DWIDTH 8 0
BBX 8 16 0 -1
BITMAP
00
00
66
66
66
66
66
66
00
00
00
00
00
00
00
00
ENDCHAR
STARTCHAR 35
ENCODING 35
SWIDTH 8000 0
DWIDTH 8 0
BBX 8 16 0 -1
BITMAP
00
00
66
66
FF
FF
66
66
66
66
FF
FF
66
66
00
00
ENDCHAR
STARTCHAR 36
ENCODING 36
SWIDTH 8000 0
DWIDTH 8 0
BBX 8 16 0 -1
BITMAP
18
18
3E
3E
60
60
3C
3C
06
06
7C
7C
18
18
00
00
ENDCHAR
STARTCHAR 37
ENCODING 37
SWIDTH 8000 0
DWIDTH 8 0
BBX 8 16 0 -1
BITMAP
00
00
66
66
6C
6C
18
18
30
30
66
66
46
46
00
00
ENDCHAR
STARTCHAR 38
ENCODING 38
SWIDTH 8000 0
DWIDTH 8 0
BBX 8 16 0 -1
BITMAP
1C
1C
36
36
1C
1C
38
38
6F
6F
66
66
3B
3B
00
00
ENDCHAR
STARTCHAR 39
ENCODING 39
SWIDTH 8000 0
DWIDTH 8 0
BBX 8 16 0 -1
BITMAP
00
00
18
18
18
18
18
18
00
00
00
00
00
00
00
00
ENDCHAR
STARTCHAR 40
ENCODING 40
SWIDTH 8000 0
DWIDTH 8 0
BBX 8 16 0 -1
BITMAP
00
00
0E
0E
1C
1C
18
18
18
18
1C
1C
0E
0E
00
00
ENDCHAR
STARTCHAR 41
ENCODING 41
SWIDTH 8000 0
DWIDTH 8 0
BBX 8 16 0 -1
BITMAP
00
00
70
70
38
38
18
18
18
18
38
38
70
70
00
00
ENDCHAR
STARTCHAR 42
ENCODING 42
SWIDTH 8000 0
DWIDTH 8 0
BBX 8 16 0 -1
BITMAP
00
00
66
66
3C
3C
FF
FF
3C
3C
66
66
00
00
00
00
ENDCHAR
STARTCHAR 43
ENCODING 43
SWIDTH 8000 0
DWIDTH 8 0
BBX 8 16 0 -1
BITMAP
00
00
18
18
18
18
7E
7E
18
18
18
18
00
00
00
00
ENDCHAR
STARTCHAR 44
ENCODING 44
SWIDTH 8000 0
DWIDTH 8 0
BBX 8 16 0 -1
BITMAP
00
00
00
00
00
00
00
00
00
00
18
18
18
18
30
30
ENDCHAR
STARTCHAR 45
ENCODING 45
SWIDTH 8000 0
DWIDTH 8 0
BBX 8 16 0 -1
BITMAP
00
00
00
00
00
00
7E
7E
00
00
00
00
00
00
00
00
ENDCHAR
STARTCHAR 46
ENCODING 46
SWIDTH 8000 0
DWIDTH 8 0
BBX 8 16 0 -1
BITMAP
00
00
00
00
00
00
00
00
00
00
18
18
18
18
00
00
ENDCHAR
STARTCHAR 47
ENCODING 47
SWIDTH 8000 0
DWIDTH 8 0
BBX 8 16 0 -1
BITMAP
00
00
06
06
0C
0C
18
18
30
30
60
60
40
40
00
00
ENDCHAR
STARTCHAR 48
ENCODING 48
SWIDTH 8000 0
DWIDTH 8 0
BBX 8 16 0 -1
BITMAP
00
00
3C
3C
66
66
6E
6E
76
76
66
66
3C
3C
00
00
ENDCHAR
STARTCHAR 49
ENCODING 49
SWIDTH 8000 0
DWIDTH 8 0
BBX 8 16 0 -1
BITMAP
00
00
18
18
38
38
18
18
18
18
18
18
7E
7E
00
00
ENDCHAR
STARTCHAR 50
ENCODING 50
SWIDTH 8000 0
DWIDTH 8 0
BBX 8 16 0 -1
BITMAP
00
00
3C
3C
66
66
0C
0C
18
18
30
30
7E
7E
00
00
ENDCHAR
STARTCHAR 51
ENCODING 51
SWIDTH 8000 0
DWIDTH 8 0
BBX 8 16 0 -1
BITMAP
00
00
7E
7E
0C
0C
18
18
0C
0C
66
66
3C
3C
00
00
ENDCHAR
STARTCHAR 52
ENCODING 52
SWIDTH 8000 0
DWIDTH 8 0
BBX 8 16 0 -1
BITMAP
00
00
0C
0C
1C
1C
3C
3C
6C
6C
7E
7E
0C
0C
00
00
ENDCHAR
STARTCHAR 53
ENCODING 53
SWIDTH 8000 0
DWIDTH 8 0
BBX 8 16 0 -1
BITMAP
00
00
7E
7E
60
60
7C
7C
06
06
66
66
3C
3C
00
00
ENDCHAR
STARTCHAR 54
ENCODING 54
SWIDTH 8000 0
DWIDTH 8 0
BBX 8 16 0 -1
BITMAP
00
00
3C
3C
60
60
7C
7C
66
66
66
66
3C
3C
00
00
ENDCHAR
STARTCHAR 55
ENCODING 55
SWIDTH 8000 0
DWIDTH 8 0
BBX 8 16 0 -1
BITMAP
00
00
7E
7E
06
06
0C
0C
18
18
30
30
30
30
00
00
ENDCHAR
STARTCHAR 56
ENCODING 56
SWIDTH 8000 0
DWIDTH 8 0
BBX 8 16 0 -1
BITMAP
00
00
3C
3C
66
66
3C
3C
66
66
66
66
3C
3C
00
00
ENDCHAR
STARTCHAR 57
ENCODING 57
SWIDTH 8000 0
DWIDTH 8 0
BBX 8 16 0 -1
BITMAP
00
00
3C
3C
66
66
3E
3E
06
06
0C
0C
38
38
00
00
ENDCHAR
STARTCHAR 58
ENCODING 58
SWIDTH 8000 0
DWIDTH 8 0
BBX 8 16 0 -1
BITMAP
00
00
00
00
18
18
18
18
00
00
18
18
18
18
00
00
ENDCHAR
STARTCHAR 59
ENCODING 59
SWIDTH 8000 0
DWIDTH 8 0
BBX 8 16 0 -1
BITMAP
00
00
00
00
18
18
18
18
00
00
18
18
18
18
30
30
ENDCHAR
STARTCHAR 60
ENCODING 60
SWIDTH 8000 0
DWIDTH 8 0
BBX 8 16 0 -1
BITMAP
06
06
0C
0C
18
18
30
30
18
18
0C
0C
06
06
00
00
ENDCHAR
STARTCHAR 61
ENCODING 61
SWIDTH 8000 0
DWIDTH 8 0
BBX 8 16 0 -1
BITMAP
00
00
00
00
7E
7E
00
00
00
00
7E
7E
00
00
00
00
ENDCHAR
STARTCHAR 62
ENCODING 62
SWIDTH 8000 0
DWIDTH 8 0
BBX 8 16 0 -1
BITMAP
60
60
30
30
18
18
0C
0C
18
18
30
30
60
60
00
00
ENDCHAR
STARTCHAR 63
ENCODING 63
SWIDTH 8000 0
DWIDTH 8 0
BBX 8 16 0 -1
BITMAP
00
00
3C
3C
66
66
0C
0C
18
18
00
00
18
18
00
00
ENDCHAR
STARTCHAR 64
ENCODING 64
SWIDTH 8000 0
DWIDTH 8 0
BBX 8 16 0 -1
BITMAP
00
00
3C
3C
66
66
6E
6E
6E
6E
60
60
3E
3E
00
00
ENDCHAR
STARTCHAR 65
ENCODING 65
SWIDTH 8000 0
DWIDTH 8 0
BBX 8 16 0 -1
BITMAP
00
00
18
18
3C
3C
66
66
66
66
7E
7E
66
66
00
00
ENDCHAR
STARTCHAR 66
ENCODING 66
SWIDTH 8000 0
DWIDTH 8 0
BBX 8 16 0 -1
BITMAP
00
00
7C
7C
66
66
7C
7C
66
66
66
66
7C
7C
00
00
ENDCHAR
STARTCHAR 67
ENCODING 67
SWIDTH 8000 0
DWIDTH 8 0
BBX 8 16 0 -1
BITMAP
00
00
3C
3C
66
66
60
60
60
60
66
66
3C
3C
00
00
ENDCHAR
STARTCHAR 68
ENCODING 68
SWIDTH 8000 0
DWIDTH 8 0
BBX 8 16 0 -1
BITMAP
00
00
78
78
6C
6C
66
66
66
66
6C
6C
78
78
00
00
ENDCHAR
STARTCHAR 69
ENCODING 69
SWIDTH 8000 0
DWIDTH 8 0
BBX 8 16 0 -1
BITMAP
00
00
7E
7E
60
60
7C
7C
60
60
60
60
7E
7E
00
00
ENDCHAR
STARTCHAR 70
ENCODING 70
SWIDTH 8000 0
DWIDTH 8 0
BBX 8 16 0 -1
BITMAP
00
00
7E
7E
60
60
7C
7C
60
60
60
60
60
60
00
00
ENDCHAR
STARTCHAR 71
ENCODING 71
SWIDTH 8000 0
DWIDTH 8 0
BBX 8 16 0 -1
BITMAP
00
00
3E
3E
60
60
60
60
6E
6E
66
66
3E
3E
00
00
ENDCHAR
STARTCHAR 72
ENCODING 72
SWIDTH 8000 0
DWIDTH 8 0
BBX 8 16 0 -1
BITMAP
00
00
66
66
66
66
7E
7E
66
66
66
66
66
66
00
00
ENDCHAR
STARTCHAR 73
ENCODING 73
SWIDTH 8000 0
DWIDTH 8 0
BBX 8 16 0 -1
BITMAP
00
00
7E
7E
18
18
18
18
18
18
18
18
7E
7E
00
00
ENDCHAR
STARTCHAR 74
ENCODING 74
SWIDTH 8000 0
DWIDTH 8 0
BBX 8 16 0 -1
BITMAP
00
00
0E
0E
06
06
06
06
06
06
66
66
3C
3C
00
00
ENDCHAR
STARTCHAR 75
ENCODING 75
SWIDTH 8000 0
DWIDTH 8 0
BBX 8 16 0 -1
BITMAP
00
00
66
66
6C
6C
78
78
78
78
6C
6C
66
66
00
00
ENDCHAR
STARTCHAR 76
ENCODING 76
SWIDTH 8000 0
DWIDTH 8 0
BBX 8 16 0 -1
BITMAP
00
00
60
60
60
60
60
60
60
60
60
60
7E
7E
00
00
ENDCHAR
STARTCHAR 77
ENCODING 77
SWIDTH 8000 0
DWIDTH 8 0
BBX 8 16 0 -1
BITMAP
00
00
63
63
77
77
7F
7F
6B
6B
63
63
63
63
00
00
ENDCHAR
STARTCHAR 78
ENCODING 78
SWIDTH 8000 0
DWIDTH 8 0
BBX 8 16 0 -1
BITMAP
00
00
66
66
76
76
7E
7E
7E
7E
6E
6E
66
66
00
00
ENDCHAR
STARTCHAR 79
ENCODING 79
SWIDTH 8000 0
DWIDTH 8 0
BBX 8 16 0 -1
BITMAP
00
00
3C
3C
66
66
66
66
66
66
66
66
3C
3C
00
00
ENDCHAR
STARTCHAR 80
ENCODING 80
SWIDTH 8000 0
DWIDTH 8 0
BBX 8 16 0 -1
BITMAP
00
00
7C
7C
66
66
66
66
7C
7C
60
60
60
60
00
00
ENDCHAR
STARTCHAR 81
ENCODING 81
SWIDTH 8000 0
DWIDTH 8 0
BBX 8 16 0 -1
BITMAP
00
00
3C
3C
66
66
66
66
66
66
6C
6C
36
36
00
00
ENDCHAR
STARTCHAR 82
ENCODING 82
SWIDTH 8000 0
DWIDTH 8 0
BBX 8 16 0 -1
BITMAP
00
00
7C
7C
66
66
66
66
7C
7C
6C
6C
66
66
00
00
ENDCHAR
STARTCHAR 83
ENCODING 83
SWIDTH 8000 0
DWIDTH 8 0
BBX 8 16 0 -1
BITMAP
00
00
3C
3C
60
60
3C
3C
06
06
06
06
3C
3C
00
00
ENDCHAR
STARTCHAR 84
ENCODING 84
SWIDTH 8000 0
DWIDTH 8 0
BBX 8 16 0 -1
BITMAP
00
00
7E
7E
18
18
18
18
18
18
18
18
18
18
00
00
ENDCHAR
STARTCHAR 85
ENCODING 85
SWIDTH 8000 0
DWIDTH 8 0
BBX 8 16 0 -1
BITMAP
00
00
66
66
66
66
66
66
66
66
66
66
7E
7E
00
00
ENDCHAR
STARTCHAR 86
ENCODING 86
SWIDTH 8000 0
DWIDTH 8 0
BBX 8 16 0 -1
BITMAP
00
00
66
66
66
66
66
66
66
66
3C
3C
18
18
00
00
ENDCHAR
STARTCHAR 87
ENCODING 87
SWIDTH 8000 0
DWIDTH 8 0
BBX 8 16 0 -1
BITMAP
00
00
63
63
63
63
6B
6B
7F
7F
77
77
63
63
00
00
ENDCHAR
STARTCHAR 88
ENCODING 88
SWIDTH 8000 0
DWIDTH 8 0
BBX 8 16 0 -1
BITMAP
00
00
66
66
66
66
3C
3C
3C
3C
66
66
66
66
00
00
ENDCHAR
STARTCHAR 89
ENCODING 89
SWIDTH 8000 0
DWIDTH 8 0
BBX 8 16 0 -1
BITMAP
00
00
66
66
66
66
3C
3C
18
18
18
18
18
18
00
00
ENDCHAR
STARTCHAR 90
ENCODING 90
SWIDTH 8000 0
DWIDTH 8 0
BBX 8 16 0 -1
BITMAP
00
00
7E
7E
0C
0C
18
18
30
30
60
60
7E
7E
00
00
ENDCHAR
STARTCHAR 91
ENCODING 91
SWIDTH 8000 0
DWIDTH 8 0
BBX 8 16 0 -1
BITMAP
00
00
1E
1E
18
18
18
18
18
18
18
18
1E
1E
00
00
ENDCHAR
STARTCHAR 92
ENCODING 92
SWIDTH 8000 0
DWIDTH 8 0
BBX 8 16 0 -1
BITMAP
00
00
40
40
60
60
30
30
18
18
0C
0C
06
06
00
00
ENDCHAR
STARTCHAR 93
ENCODING 93
SWIDTH 8000 0
DWIDTH 8 0
BBX 8 16 0 -1
BITMAP
00
00
78
78
18
18
18
18
18
18
18
18
78
78
00
00
ENDCHAR
STARTCHAR 94
ENCODING 94
SWIDTH 8000 0
DWIDTH 8 0
BBX 8 16 0 -1
BITMAP
00
00
08
08
1C
1C
36
36
63
63
00
00
00
00
00
00
ENDCHAR
STARTCHAR 95
ENCODING 95
SWIDTH 8000 0
DWIDTH 8 0
BBX 8 16 0 -1
BITMAP
00
00
00
00
00
00
00
00
00
00
00
00
FF
FF
00
00
ENDCHAR
STARTCHAR 96
ENCODING 96
SWIDTH 8000 0
DWIDTH 8 0
BBX 8 16 0 -1
BITMAP
00
00
18
18
3C
3C
7E
7E
7E
7E
3C
3C
18
18
00
00
ENDCHAR
STARTCHAR 97
ENCODING 97
SWIDTH 8000 0
DWIDTH 8 0
BBX 8 16 0 -1
BITMAP
00
00
00
00
3C
3C
06
06
3E
3E
66
66
3E
3E
00
00
ENDCHAR
STARTCHAR 98
ENCODING 98
SWIDTH 8000 0
DWIDTH 8 0
BBX 8 16 0 -1
BITMAP
00
00
60
60
60
60
7C
7C
66
66
66
66
7C
7C
00
00
ENDCHAR
STARTCHAR 99
ENCODING 99
SWIDTH 8000 0
DWIDTH 8 0
BBX 8 16 0 -1
BITMAP
00
00
00
00
3C
3C
60
60
60
60
60
60
3C
3C
00
00
ENDCHAR
STARTCHAR 100
ENCODING 100
SWIDTH 8000 0
DWIDTH 8 0
BBX 8 16 0 -1
BITMAP
00
00
06
06
06
06
3E
3E
66
66
66
66
3E
3E
00
00
ENDCHAR
STARTCHAR 101
ENCODING 101
SWIDTH 8000 0
DWIDTH 8 0
BBX 8 16 0 -1
BITMAP
00
00
00
00
3C
3C
66
66
7E
7E
60
60
3C
3C
00
00
ENDCHAR
STARTCHAR 102
ENCODING 102
SWIDTH 8000 0
DWIDTH 8 0
BBX 8 16 0 -1
BITMAP
00
00
0E
0E
18
18
3E
3E
18
18
18
18
18
18
00
00
ENDCHAR
STARTCHAR 103
ENCODING 103
SWIDTH 8000 0
DWIDTH 8 0
BBX 8 16 0 -1
BITMAP
00
00
00
00
3E
3E
66
66
66
66
3E
3E
06
06
7C
7C
ENDCHAR
STARTCHAR 104
ENCODING 104
SWIDTH 8000 0
DWIDTH 8 0
BBX 8 16 0 -1
BITMAP
00
00
60
60
60
60
7C
7C
66
66
66
66
66
66
00
00
ENDCHAR
STARTCHAR 105
ENCODING 105
SWIDTH 8000 0
DWIDTH 8 0
BBX 8 16 0 -1
BITMAP
00
00
18
18
00
00
38
38
18
18
18
18
3C
3C
00
00
ENDCHAR
STARTCHAR 106
ENCODING 106
SWIDTH 8000 0
DWIDTH 8 0
BBX 8 16 0 -1
BITMAP
00
00
06
06
00
00
06
06
06
06
06
06
06
06
3C
3C
ENDCHAR
STARTCHAR 107
ENCODING 107
SWIDTH 8000 0
DWIDTH 8 0
BBX 8 16 0 -1
BITMAP
00
00
60
60
60
60
6C
6C
78
78
6C
6C
66
66
00
00
ENDCHAR
STARTCHAR 108
ENCODING 108
SWIDTH 8000 0
DWIDTH 8 0
BBX 8 16 0 -1
BITMAP
00
00
38
38
18
18
18
18
18
18
18
18
3C
3C
00
00
ENDCHAR
STARTCHAR 109
ENCODING 109
SWIDTH 8000 0
DWIDTH 8 0
BBX 8 16 0 -1
BITMAP
00
00
00
00
66
66
7F
7F
7F
7F
6B
6B
63
63
00
00
ENDCHAR
STARTCHAR 110
ENCODING 110
SWIDTH 8000 0
DWIDTH 8 0
BBX 8 16 0 -1
BITMAP
00
00
00
00
7C
7C
66
66
66
66
66
66
66
66
00
00
ENDCHAR
STARTCHAR 111
ENCODING 111
SWIDTH 8000 0
DWIDTH 8 0
BBX 8 16 0 -1
BITMAP
00
00
00
00
3C
3C
66
66
66
66
66
66
3C
3C
00
00
ENDCHAR
STARTCHAR 112
ENCODING 112
SWIDTH 8000 0
DWIDTH 8 0
BBX 8 16 0 -1
BITMAP
00
00
00
00
7C
7C
66
66
66
66
7C
7C
60
60
60
60
ENDCHAR
STARTCHAR 113
ENCODING 113
SWIDTH 8000 0
DWIDTH 8 0
BBX 8 16 0 -1
BITMAP
00
00
00
00
3E
3E
66
66
66
66
3E
3E
06
06
06
06
ENDCHAR
STARTCHAR 114
ENCODING 114
SWIDTH 8000 0
DWIDTH 8 0
BBX 8 16 0 -1
BITMAP
00
00
00
00
7C
7C
66
66
60
60
60
60
60
60
00
00
ENDCHAR
STARTCHAR 115
ENCODING 115
SWIDTH 8000 0
DWIDTH 8 0
BBX 8 16 0 -1
BITMAP
00
00
00
00
3E
3E
60
60
3C
3C
06
06
7C
7C
00
00
ENDCHAR
STARTCHAR 116
ENCODING 116
SWIDTH 8000 0
DWIDTH 8 0
BBX 8 16 0 -1
BITMAP
00
00
18
18
7E
7E
18
18
18
18
18
18
0E
0E
00
00
ENDCHAR
STARTCHAR 117
ENCODING 117
SWIDTH 8000 0
DWIDTH 8 0
BBX 8 16 0 -1
BITMAP
00
00
00
00
66
66
66
66
66
66
66
66
3E
3E
00
00
ENDCHAR
STARTCHAR 118
ENCODING 118
SWIDTH 8000 0
DWIDTH 8 0
BBX 8 16 0 -1
BITMAP
00
00
00
00
66
66
66
66
66
66
3C
3C
18
18
00
00
ENDCHAR
STARTCHAR 119
ENCODING 119
SWIDTH 8000 0
DWIDTH 8 0
BBX 8 16 0 -1
BITMAP
00
00
00
00
63
63
6B
6B
7F
7F
3E
3E
36
36
00
00
ENDCHAR
STARTCHAR 120
ENCODING 120
SWIDTH 8000 0
DWIDTH 8 0
BBX 8 16 0 -1
BITMAP
00
00
00
00
66
66
3C
3C
18
18
3C
3C
66
66
00
00
ENDCHAR
STARTCHAR 121
ENCODING 121
SWIDTH 8000 0
DWIDTH 8 0
BBX 8 16 0 -1
BITMAP
00
00
00
00
66
66
66
66
66
66
3E
3E
0C
0C
78
78
ENDCHAR
STARTCHAR 122
ENCODING 122
SWIDTH 8000 0
DWIDTH 8 0
BBX 8 16 0 -1
BITMAP
00
00
00
00
7E
7E
0C
0C
18
18
30
30
7E
7E
00
00
ENDCHAR
STARTCHAR 123
ENCODING 123
SWIDTH 8000 0
DWIDTH 8 0
BBX 8 16 0 -1
BITMAP
00
00
18
18
3C
3C
7E
7E
7E
7E
18
18
3C
3C
00
00
ENDCHAR
STARTCHAR 124
ENCODING 124
SWIDTH 8000 0
DWIDTH 8 0
BBX 8 16 0 -1
BITMAP
18
18
18
18
18
18
18
18
18
18
18
18
18
18
18
18
ENDCHAR
STARTCHAR 125
ENCODING 125
SWIDTH 8000 0
DWIDTH 8 0
BBX 8 16 0 -1
BITMAP
00
00
7E
7E
78
78
7C
7C
6E
6E
66
66
06
06
00
00
ENDCHAR
STARTCHAR 126
ENCODING 126
SWIDTH 8000 0
DWIDTH 8 0
BBX 8 16 0 -1
BITMAP
08
08
18
18
38
38
78
78
38
38
18
18
08
08
00
00
ENDCHAR
STARTCHAR 127
ENCODING 127
SWIDTH 8000 0
DWIDTH 8 0
BBX 8 16 0 -1
BITMAP
10
10
18
18
1C
1C
1E
1E
1C
1C
18
18
10
10
00
00
ENDCHAR
STARTCHAR 128
ENCODING 128
SWIDTH 8000 0
DWIDTH 8 0
BBX 8 16 0 -1
BITMAP
FF
FF
C9
C9
80
80
80
80
C1
C1
E3
E3
F7
F7
FF
FF
ENDCHAR
STARTCHAR 129
ENCODING 129
SWIDTH 8000 0
DWIDTH 8 0
BBX 8 16 0 -1
BITMAP
E7
E7
E7
E7
E7
E7
E0
E0
E0
E0
E7
E7
E7
E7
E7
E7
ENDCHAR
STARTCHAR 130
ENCODING 130
SWIDTH 8000 0
DWIDTH 8 0
BBX 8 16 0 -1
BITMAP
FC
FC
FC
FC
FC
FC
FC
FC
FC
FC
FC
FC
FC
FC
FC
FC
ENDCHAR
STARTCHAR 131
ENCODING 131
SWIDTH 8000 0
DWIDTH 8 0
BBX 8 16 0 -1
BITMAP
E7
E7
E7
E7
E7
E7
07
07
07
07
FF
FF
FF
FF
FF
FF
ENDCHAR
STARTCHAR 132
ENCODING 132
SWIDTH 8000 0
DWIDTH 8 0
BBX 8 16 0 -1
BITMAP
E7
E7
E7
E7
E7
E7
07
07
07
07
E7
E7
E7
E7
E7
E7
ENDCHAR
STARTCHAR 133
ENCODING 133
SWIDTH 8000 0
DWIDTH 8 0
BBX 8 16 0 -1
BITMAP
FF
FF
FF
FF
FF
FF
07
07
07
07
E7
E7
E7
E7
E7
E7
ENDCHAR
STARTCHAR 134
ENCODING 134
SWIDTH 8000 0
DWIDTH 8 0
BBX 8 16 0 -1
BITMAP
FC
FC
F8
F8
F1
F1
E3
E3
C7
C7
8F
8F
1F
1F
3F
3F
ENDCHAR
STARTCHAR 135
ENCODING 135
SWIDTH 8000 0
DWIDTH 8 0
BBX 8 16 0 -1
BITMAP
3F
3F
1F
1F
8F
8F
C7
C7
E3
E3
F1
F1
F8
F8
FC
FC
ENDCHAR
STARTCHAR 136
ENCODING 136
SWIDTH 8000 0
DWIDTH 8 0
BBX 8 16 0 -1
BITMAP
FE
FE
FC
FC
F8
F8
F0
F0
E0
E0
C0
C0
80
80
00
00
ENDCHAR
STARTCHAR 137
ENCODING 137
SWIDTH 8000 0
DWIDTH 8 0
BBX 8 16 0 -1
BITMAP
FF
FF
FF
FF
FF
FF
FF
FF
F0
F0
F0
F0
F0
F0
F0
F0
ENDCHAR
STARTCHAR 138
ENCODING 138
SWIDTH 8000 0
DWIDTH 8 0
BBX 8 16 0 -1
BITMAP
7F
7F
3F
3F
1F
1F
0F
0F
07
07
03
03
01
01
00
00
ENDCHAR
STARTCHAR 139
ENCODING 139
SWIDTH 8000 0
DWIDTH 8 0
BBX 8 16 0 -1
BITMAP
F0
F0
F0
F0
F0
F0
F0
F0
FF
FF
FF
FF
FF
FF
FF
FF
ENDCHAR
STARTCHAR 140
ENCODING 140
SWIDTH 8000 0
DWIDTH 8 0
BBX 8 16 0 -1
BITMAP
0F
0F
0F
0F
0F
0F
0F
0F
FF
FF
FF
FF
FF
FF
FF
FF
ENDCHAR
STARTCHAR 141
ENCODING 141
SWIDTH 8000 0
DWIDTH 8 0
BBX 8 16 0 -1
BITMAP
00
00
00
00
FF
FF
FF
FF
FF
FF
FF
FF
FF
FF
FF
FF
ENDCHAR
STARTCHAR 142
ENCODING 142
SWIDTH 8000 0
DWIDTH 8 0
BBX 8 16 0 -1
BITMAP
FF
FF
FF
FF
FF
FF
FF
FF
FF
FF
FF
FF
00
00
00
00
ENDCHAR
STARTCHAR 143
ENCODING 143
SWIDTH 8000 0
DWIDTH 8 0
BBX 8 16 0 -1
BITMAP
FF
FF
FF
FF
FF
FF
FF
FF
0F
0F
0F
0F
0F
0F
0F
0F
ENDCHAR
STARTCHAR 144
ENCODING 144
SWIDTH 8000 0
DWIDTH 8 0
BBX 8 16 0 -1
BITMAP
FF
FF
E3
E3
E3
E3
88
88
88
88
F7
F7
E3
E3
FF
FF
ENDCHAR
STARTCHAR 145
ENCODING 145
SWIDTH 8000 0
DWIDTH 8 0
BBX 8 16 0 -1
BITMAP
FF
FF
FF
FF
FF
FF
E0
E0
E0
E0
E7
E7
E7
E7
E7
E7
ENDCHAR
STARTCHAR 146
ENCODING 146
SWIDTH 8000 0
DWIDTH 8 0
BBX 8 16 0 -1
BITMAP
FF
FF
FF
FF
FF
FF
00
00
00
00
FF
FF
FF
FF
FF
FF
ENDCHAR
STARTCHAR 147
ENCODING 147
SWIDTH 8000 0
DWIDTH 8 0
BBX 8 16 0 -1
BITMAP
E7
E7
E7
E7
E7
E7
00
00
00
00
E7
E7
E7
E7
E7
E7
ENDCHAR
STARTCHAR 148
ENCODING 148
SWIDTH 8000 0
DWIDTH 8 0
BBX 8 16 0 -1
BITMAP
FF
FF
FF
FF
C3
C3
81
81
81
81
81
81
C3
C3
FF
FF
ENDCHAR
STARTCHAR 149
ENCODING 149
SWIDTH 8000 0
DWIDTH 8 0
BBX 8 16 0 -1
BITMAP
FF
FF
FF
FF
FF
FF
FF
FF
00
00
00
00
00
00
00
00
ENDCHAR
STARTCHAR 150
ENCODING 150
SWIDTH 8000 0
DWIDTH 8 0
BBX 8 16 0 -1
BITMAP
3F
3F
3F
3F
3F
3F
3F
3F
3F
3F
3F
3F
3F
3F
3F
3F
ENDCHAR
STARTCHAR 151
ENCODING 151
SWIDTH 8000 0
DWIDTH 8 0
BBX 8 16 0 -1
BITMAP
FF
FF
FF
FF
FF
FF
00
00
00
00
E7
E7
E7
E7
E7
E7
ENDCHAR
STARTCHAR 152
ENCODING 152
SWIDTH 8000 0
DWIDTH 8 0
BBX 8 16 0 -1
BITMAP
E7
E7
E7
E7
E7
E7
00
00
00
00
FF
FF
FF
FF
FF
FF
ENDCHAR
STARTCHAR 153
ENCODING 153
SWIDTH 8000 0
DWIDTH 8 0
BBX 8 16 0 -1
BITMAP
0F
0F
0F
0F
0F
0F
0F
0F
0F
0F
0F
0F
0F
0F
0F
0F
ENDCHAR
STARTCHAR 154
ENCODING 154
SWIDTH 8000 0
DWIDTH 8 0
BBX 8 16 0 -1
BITMAP
E7
E7
E7
E7
E7
E7
E0
E0
E0
E0
FF
FF
FF
FF
FF
FF
ENDCHAR
STARTCHAR 155
ENCODING 155
SWIDTH 8000 0
DWIDTH 8 0
BBX 8 16 0 -1
BITMAP
00
00
00
00
00
00
00
00
00
00
00
00
00
00
00
00
ENDCHAR
STARTCHAR 156
ENCODING 156
SWIDTH 8000 0
DWIDTH 8 0
BBX 8 16 0 -1
BITMAP
FF
FF
E7
E7
C3
C3
81
81
E7
E7
E7
E7
E7
E7
FF
FF
ENDCHAR
STARTCHAR 157
ENCODING 157
SWIDTH 8000 0
DWIDTH 8 0
BBX 8 16 0 -1
BITMAP
FF
FF
E7
E7
E7
E7
E7
E7
81
81
C3
C3
E7
E7
FF
FF
ENDCHAR
STARTCHAR 158
ENCODING 158
SWIDTH 8000 0
DWIDTH 8 0
BBX 8 16 0 -1
BITMAP
FF
FF
E7
E7
CF
CF
81
81
CF
CF
E7
E7
FF
FF
FF
FF
ENDCHAR
STARTCHAR 159
ENCODING 159
SWIDTH 8000 0
DWIDTH 8 0
BBX 8 16 0 -1
BITMAP
FF
FF
E7
E7
F3
F3
81
81
F3
F3
E7
E7
FF
FF
FF
FF
ENDCHAR
STARTCHAR 160
ENCODING 160
SWIDTH 8000 0
DWIDTH 8 0
BBX 8 16 0 -1
BITMAP
FF
FF
FF
FF
FF
FF
FF
FF
FF
FF
FF
FF
FF
FF
FF
FF
ENDCHAR
STARTCHAR 161
ENCODING 161
SWIDTH 8000 0
DWIDTH 8 0
BBX 8 16 0 -1
BITMAP
FF
FF
E7
E7
E7
E7
E7
E7
E7
E7
FF
FF
E7
E7
FF
FF
ENDCHAR
STARTCHAR 162
ENCODING 162
SWIDTH 8000 0
DWIDTH 8 0
BBX 8 16 0 -1
BITMAP
FF
FF
99
99
99
99
99
99
FF
FF
FF
FF
FF
FF
FF
FF
ENDCHAR
STARTCHAR 163
ENCODING 163
SWIDTH 8000 0
DWIDTH 8 0
BBX 8 16 0 -1
BITMAP
FF
FF
99
99
00
00
99
99
99
99
00
00
99
99
FF
FF
ENDCHAR
STARTCHAR 164
ENCODING 164
SWIDTH 8000 0
DWIDTH 8 0
BBX 8 16 0 -1
BITMAP
E7
E7
C1
C1
9F
9F
C3
C3
F9
F9
83
83
E7
E7
FF
FF
ENDCHAR
STARTCHAR 165
ENCODING 165
SWIDTH 8000 0
DWIDTH 8 0
BBX 8 16 0 -1
BITMAP
FF
FF
99
99
93
93
E7
E7
CF
CF
99
99
B9
B9
FF
FF
ENDCHAR
STARTCHAR 166
ENCODING 166
SWIDTH 8000 0
DWIDTH 8 0
BBX 8 16 0 -1
BITMAP
E3
E3
C9
C9
E3
E3
C7
C7
90
90
99
99
C4
C4
FF
FF
ENDCHAR
STARTCHAR 167
ENCODING 167
SWIDTH 8000 0
DWIDTH 8 0
BBX 8 16 0 -1
BITMAP
FF
FF
E7
E7
E7
E7
E7
E7
FF
FF
FF
FF
FF
FF
FF
FF
ENDCHAR
STARTCHAR 168
ENCODING 168
SWIDTH 8000 0
DWIDTH 8 0
BBX 8 16 0 -1
BITMAP
FF
FF
F1
F1
E3
E3
E7
E7
E7
E7
E3
E3
F1
F1
FF
FF
ENDCHAR
STARTCHAR 169
ENCODING 169
SWIDTH 8000 0
DWIDTH 8 0
BBX 8 16 0 -1
BITMAP
FF
FF
8F
8F
C7
C7
E7
E7
E7
E7
C7
C7
8F
8F
FF
FF
ENDCHAR
STARTCHAR 170
ENCODING 170
SWIDTH 8000 0
DWIDTH 8 0
BBX 8 16 0 -1
BITMAP
FF
FF
99
99
C3
C3
00
00
C3
C3
99
99
FF
FF
FF
FF
ENDCHAR
STARTCHAR 171
ENCODING 171
SWIDTH 8000 0
DWIDTH 8 0
BBX 8 16 0 -1
BITMAP
FF
FF
E7
E7
E7
E7
81
81
E7
E7
E7
E7
FF
FF
FF
FF
ENDCHAR
STARTCHAR 172
ENCODING 172
SWIDTH 8000 0
DWIDTH 8 0
BBX 8 16 0 -1
BITMAP
FF
FF
FF
FF
FF
FF
FF
FF
FF
FF
E7
E7
E7
E7
CF
CF
ENDCHAR
STARTCHAR 173
ENCODING 173
SWIDTH 8000 0
DWIDTH 8 0
BBX 8 16 0 -1
BITMAP
FF
FF
FF
FF
FF
FF
81
81
FF
FF
FF
FF
FF
FF
FF
FF
ENDCHAR
STARTCHAR 174
ENCODING 174
SWIDTH 8000 0
DWIDTH 8 0
BBX 8 16 0 -1
BITMAP
FF
FF
FF
FF
FF
FF
FF
FF
FF
FF
E7
E7
E7
E7
FF
FF
ENDCHAR
STARTCHAR 175
ENCODING 175
SWIDTH 8000 0
DWIDTH 8 0
BBX 8 16 0 -1
BITMAP
FF
FF
F9
F9
F3
F3
E7
E7
CF
CF
9F
9F
BF
BF
FF
FF
ENDCHAR
STARTCHAR 176
ENCODING 176
SWIDTH 8000 0
DWIDTH 8 0
BBX 8 16 0 -1
BITMAP
FF
FF
C3
C3
99
99
91
91
89
89
99
99
C3
C3
FF
FF
ENDCHAR
STARTCHAR 177
ENCODING 177
SWIDTH 8000 0
DWIDTH 8 0
BBX 8 16 0 -1
BITMAP
FF
FF
E7
E7
C7
C7
E7
E7
E7
E7
E7
E7
81
81
FF
FF
ENDCHAR
STARTCHAR 178
ENCODING 178
SWIDTH 8000 0
DWIDTH 8 0
BBX 8 16 0 -1
BITMAP
FF
FF
C3
C3
99
99
F3
F3
E7
E7
CF
CF
81
81
FF
FF
ENDCHAR
STARTCHAR 179
ENCODING 179
SWIDTH 8000 0
DWIDTH 8 0
BBX 8 16 0 -1
BITMAP
FF
FF
81
81
F3
F3
E7
E7
F3
F3
99
99
C3
C3
FF
FF
ENDCHAR
STARTCHAR 180
ENCODING 180
SWIDTH 8000 0
DWIDTH 8 0
BBX 8 16 0 -1
BITMAP
FF
FF
F3
F3
E3
E3
C3
C3
93
93
81
81
F3
F3
FF
FF
ENDCHAR
STARTCHAR 181
ENCODING 181
SWIDTH 8000 0
DWIDTH 8 0
BBX 8 16 0 -1
BITMAP
FF
FF
81
81
9F
9F
83
83
F9
F9
99
99
C3
C3
FF
FF
ENDCHAR
STARTCHAR 182
ENCODING 182
SWIDTH 8000 0
DWIDTH 8 0
BBX 8 16 0 -1
BITMAP
FF
FF
C3
C3
9F
9F
83
83
99
99
99
99
C3
C3
FF
FF
ENDCHAR
STARTCHAR 183
ENCODING 183
SWIDTH 8000 0
DWIDTH 8 0
BBX 8 16 0 -1
BITMAP
FF
FF
81
81
F9
F9
F3
F3
E7
E7
CF
CF
CF
CF
FF
FF
ENDCHAR
STARTCHAR 184
ENCODING 184
SWIDTH 8000 0
DWIDTH 8 0
BBX 8 16 0 -1
BITMAP
FF
FF
C3
C3
99
99
C3
C3
99
99
99
99
C3
C3
FF
FF
ENDCHAR
STARTCHAR 185
ENCODING 185
SWIDTH 8000 0
DWIDTH 8 0
BBX 8 16 0 -1
BITMAP
FF
FF
C3
C3
99
99
C1
C1
F9
F9
F3
F3
C7
C7
FF
FF
ENDCHAR
STARTCHAR 186
ENCODING 186
SWIDTH 8000 0
DWIDTH 8 0
BBX 8 16 0 -1
BITMAP
FF
FF
FF
FF
E7
E7
E7
E7
FF
FF
E7
E7
E7
E7
FF
FF
ENDCHAR
STARTCHAR 187
ENCODING 187
SWIDTH 8000 0
DWIDTH 8 0
BBX 8 16 0 -1
BITMAP
FF
FF
FF
FF
E7
E7
E7
E7
FF
FF
E7
E7
E7
E7
CF
CF
ENDCHAR
STARTCHAR 188
ENCODING 188
SWIDTH 8000 0
DWIDTH 8 0
BBX 8 16 0 -1
BITMAP
F9
F9
F3
F3
E7
E7
CF
CF
E7
E7
F3
F3
F9
F9
FF
FF
ENDCHAR
STARTCHAR 189
ENCODING 189
SWIDTH 8000 0
DWIDTH 8 0
BBX 8 16 0 -1
BITMAP
FF
FF
FF
FF
81
81
FF
FF
FF
FF
81
81
FF
FF
FF
FF
ENDCHAR
STARTCHAR 190
ENCODING 190
SWIDTH 8000 0
DWIDTH 8 0
BBX 8 16 0 -1
BITMAP
9F
9F
CF
CF
E7
E7
F3
F3
E7
E7
CF
CF
9F
9F
FF
FF
ENDCHAR
STARTCHAR 191
ENCODING 191
SWIDTH 8000 0
DWIDTH 8 0
BBX 8 16 0 -1
BITMAP
FF
FF
C3
C3
99
99
F3
F3
E7
E7
FF
FF
E7
E7
FF
FF
ENDCHAR
STARTCHAR 192
ENCODING 192
SWIDTH 8000 0
DWIDTH 8 0
BBX 8 16 0 -1
BITMAP
FF
FF
C3
C3
99
99
91
91
91
91
9F
9F
C1
C1
FF
FF
ENDCHAR
STARTCHAR 193
ENCODING 193
SWIDTH 8000 0
DWIDTH 8 0
BBX 8 16 0 -1
BITMAP
FF
FF
E7
E7
C3
C3
99
99
99
99
81
81
99
99
FF
FF
ENDCHAR
STARTCHAR 194
ENCODING 194
SWIDTH 8000 0
DWIDTH 8 0
BBX 8 16 0 -1
BITMAP
FF
FF
83
83
99
99
83
83
99
99
99
99
83
83
FF
FF
ENDCHAR
STARTCHAR 195
ENCODING 195
SWIDTH 8000 0
DWIDTH 8 0
BBX 8 16 0 -1
BITMAP
FF
FF
C3
C3
99
99
9F
9F
9F
9F
99
99
C3
C3
FF
FF
ENDCHAR
STARTCHAR 196
ENCODING 196
SWIDTH 8000 0
DWIDTH 8 0
BBX 8 16 0 -1
BITMAP
FF
FF
87
87
93
93
99
99
99
99
93
93
87
87
FF
FF
ENDCHAR
STARTCHAR 197
ENCODING 197
SWIDTH 8000 0
DWIDTH 8 0
BBX 8 16 0 -1
BITMAP
FF
FF
81
81
9F
9F
83
83
9F
9F
9F
9F
81
81
FF
FF
ENDCHAR
STARTCHAR 198
ENCODING 198
SWIDTH 8000 0
DWIDTH 8 0
BBX 8 16 0 -1
BITMAP
FF
FF
81
81
9F
9F
83
83
9F
9F
9F
9F
9F
9F
FF
FF
ENDCHAR
STARTCHAR 199
ENCODING 199
SWIDTH 8000 0
DWIDTH 8 0
BBX 8 16 0 -1
BITMAP
FF
FF
C1
C1
9F
9F
9F
9F
91
91
99
99
C1
C1
FF
FF
ENDCHAR
STARTCHAR 200
ENCODING 200
SWIDTH 8000 0
DWIDTH 8 0
BBX 8 16 0 -1
BITMAP
FF
FF
99
99
99
99
81
81
99
99
99
99
99
99
FF
FF
ENDCHAR
STARTCHAR 201
ENCODING 201
SWIDTH 8000 0
DWIDTH 8 0
BBX 8 16 0 -1
BITMAP
FF
FF
81
81
E7
E7
E7
E7
E7
E7
E7
E7
81
81
FF
FF
ENDCHAR
STARTCHAR 202
ENCODING 202
SWIDTH 8000 0
DWIDTH 8 0
BBX 8 16 0 -1
BITMAP
FF
FF
F1
F1
F9
F9
F9
F9
F9
F9
99
99
C3
C3
FF
FF
ENDCHAR
STARTCHAR 203
ENCODING 203
SWIDTH 8000 0
DWIDTH 8 0
BBX 8 16 0 -1
BITMAP
FF
FF
99
99
93
93
87
87
87
87
93
93
99
99
FF
FF
ENDCHAR
STARTCHAR 204
ENCODING 204
SWIDTH 8000 0
DWIDTH 8 0
BBX 8 16 0 -1
BITMAP
FF
FF
9F
9F
9F
9F
9F
9F
9F
9F
9F
9F
81
81
FF
FF
ENDCHAR
STARTCHAR 205
ENCODING 205
SWIDTH 8000 0
DWIDTH 8 0
BBX 8 16 0 -1
BITMAP
FF
FF
9C
9C
88
88
80
80
94
94
9C
9C
9C
9C
FF
FF
ENDCHAR
STARTCHAR 206
ENCODING 206
SWIDTH 8000 0
DWIDTH 8 0
BBX 8 16 0 -1
BITMAP
FF
FF
99
99
89
89
81
81
81
81
91
91
99
99
FF
FF
ENDCHAR
STARTCHAR 207
ENCODING 207
SWIDTH 8000 0
DWIDTH 8 0
BBX 8 16 0 -1
BITMAP
FF
FF
C3
C3
99
99
99
99
99
99
99
99
C3
C3
FF
FF
ENDCHAR
STARTCHAR 208
ENCODING 208
SWIDTH 8000 0
DWIDTH 8 0
BBX 8 16 0 -1
BITMAP
FF
FF
83
83
99
99
99
99
83
83
9F
9F
9F
9F
FF
FF
ENDCHAR
STARTCHAR 209
ENCODING 209
SWIDTH 8000 0
DWIDTH 8 0
BBX 8 16 0 -1
BITMAP
FF
FF
C3
C3
99
99
99
99
99
99
93
93
C9
C9
FF
FF
ENDCHAR
STARTCHAR 210
ENCODING 210
SWIDTH 8000 0
DWIDTH 8 0
BBX 8 16 0 -1
BITMAP
FF
FF
83
83
99
99
99
99
83
83
93
93
99
99
FF
FF
ENDCHAR
STARTCHAR 211
ENCODING 211
SWIDTH 8000 0
DWIDTH 8 0
BBX 8 16 0 -1
BITMAP
FF
FF
C3
C3
9F
9F
C3
C3
F9
F9
F9
F9
C3
C3
FF
FF
ENDCHAR
STARTCHAR 212
ENCODING 212
SWIDTH 8000 0
DWIDTH 8 0
BBX 8 16 0 -1
BITMAP
FF
FF
81
81
E7
E7
E7
E7
E7
E7
E7
E7
E7
E7
FF
FF
ENDCHAR
STARTCHAR 213
ENCODING 213
SWIDTH 8000 0
DWIDTH 8 0
BBX 8 16 0 -1
BITMAP
FF
FF
99
99
99
99
99
99
99
99
99
99
81
81
FF
FF
ENDCHAR
STARTCHAR 214
ENCODING 214
SWIDTH 8000 0
DWIDTH 8 0
BBX 8 16 0 -1
BITMAP
FF
FF
99
99
99
99
99
99
99
99
C3
C3
E7
E7
FF
FF
ENDCHAR
STARTCHAR 215
ENCODING 215
SWIDTH 8000 0
DWIDTH 8 0
BBX 8 16 0 -1
BITMAP
FF
FF
9C
9C
9C
9C
94
94
80
80
88
88
9C
9C
FF
FF
ENDCHAR
STARTCHAR 216
ENCODING 216
SWIDTH 8000 0
DWIDTH 8 0
BBX 8 16 0 -1
BITMAP
FF
FF
99
99
99
99
C3
C3
C3
C3
99
99
99
99
FF
FF
ENDCHAR
STARTCHAR 217
ENCODING 217
SWIDTH 8000 0
DWIDTH 8 0
BBX 8 16 0 -1
BITMAP
FF
FF
99
99
99
99
C3
C3
E7
E7
E7
E7
E7
E7
FF
FF
ENDCHAR
STARTCHAR 218
ENCODING 218
SWIDTH 8000 0
DWIDTH 8 0
BBX 8 16 0 -1
BITMAP
FF
FF
81
81
F3
F3
E7
E7
CF
CF
9F
9F
81
81
FF
FF
ENDCHAR
STARTCHAR 219
ENCODING 219
SWIDTH 8000 0
DWIDTH 8 0
BBX 8 16 0 -1
BITMAP
FF
FF
E1
E1
E7
E7
E7
E7
E7
E7
E7
E7
E1
E1
FF
FF
ENDCHAR
STARTCHAR 220
ENCODING 220
SWIDTH 8000 0
DWIDTH 8 0
BBX 8 16 0 -1
BITMAP
FF
FF
BF
BF
9F
9F
CF
CF
E7
E7
F3
F3
F9
F9
FF
FF
ENDCHAR
STARTCHAR 221
ENCODING 221
SWIDTH 8000 0
DWIDTH 8 0
BBX 8 16 0 -1
BITMAP
FF
FF
87
87
E7
E7
E7
E7
E7
E7
E7
E7
87
87
FF
FF
ENDCHAR
STARTCHAR 222
ENCODING 222
SWIDTH 8000 0
DWIDTH 8 0
BBX 8 16 0 -1
BITMAP
FF
FF
F7
F7
E3
E3
C9
C9
9C
9C
FF
FF
FF
FF
FF
FF
ENDCHAR
STARTCHAR 223
ENCODING 223
SWIDTH 8000 0
DWIDTH 8 0
BBX 8 16 0 -1
BITMAP
FF
FF
FF
FF
FF
FF
FF
FF
FF
FF
FF
FF
00
00
FF
FF
ENDCHAR
STARTCHAR 224
ENCODING 224
SWIDTH 8000 0
DWIDTH 8 0
BBX 8 16 0 -1
BITMAP
FF
FF
E7
E7
C3
C3
81
81
81
81
C3
C3
E7
E7
FF
FF
ENDCHAR
STARTCHAR 225
ENCODING 225
SWIDTH 8000 0
DWIDTH 8 0
BBX 8 16 0 -1
BITMAP
FF
FF
FF
FF
C3
C3
F9
F9
C1
C1
99
99
C1
C1
FF
FF
ENDCHAR
STARTCHAR 226
ENCODING 226
SWIDTH 8000 0
DWIDTH 8 0
BBX 8 16 0 -1
BITMAP
FF
FF
9F
9F
9F
9F
83
83
99
99
99
99
83
83
FF
FF
ENDCHAR
STARTCHAR 227
ENCODING 227
SWIDTH 8000 0
DWIDTH 8 0
BBX 8 16 0 -1
BITMAP
FF
FF
FF
FF
C3
C3
9F
9F
9F
9F
9F
9F
C3
C3
FF
FF
ENDCHAR
STARTCHAR 228
ENCODING 228
SWIDTH 8000 0
DWIDTH 8 0
BBX 8 16 0 -1
BITMAP
FF
FF
F9
F9
F9
F9
C1
C1
99
99
99
99
C1
C1
FF
FF
ENDCHAR
STARTCHAR 229
ENCODING 229
SWIDTH 8000 0
DWIDTH 8 0
BBX 8 16 0 -1
BITMAP
FF
FF
FF
FF
C3
C3
99
99
81
81
9F
9F
C3
C3
FF
FF
ENDCHAR
STARTCHAR 230
ENCODING 230
SWIDTH 8000 0
DWIDTH 8 0
BBX 8 16 0 -1
BITMAP
FF
FF
F1
F1
E7
E7
C1
C1
E7
E7
E7
E7
E7
E7
FF
FF
ENDCHAR
STARTCHAR 231
ENCODING 231
SWIDTH 8000 0
DWIDTH 8 0
BBX 8 16 0 -1
BITMAP
FF
FF
FF
FF
C1
C1
99
99
99
99
C1
C1
F9
F9
83
83
ENDCHAR
STARTCHAR 232
ENCODING 232
SWIDTH 8000 0
DWIDTH 8 0
BBX 8 16 0 -1
BITMAP
FF
FF
9F
9F
9F
9F
83
83
99
99
99
99
99
99
FF
FF
ENDCHAR
STARTCHAR 233
ENCODING 233
SWIDTH 8000 0
DWIDTH 8 0
BBX 8 16 0 -1
BITMAP
FF
FF
E7
E7
FF
FF
C7
C7
E7
E7
E7
E7
C3
C3
FF
FF
ENDCHAR
STARTCHAR 234
ENCODING 234
SWIDTH 8000 0
DWIDTH 8 0
BBX 8 16 0 -1
BITMAP
FF
FF
F9
F9
FF
FF
F9
F9
F9
F9
F9
F9
F9
F9
C3
C3
ENDCHAR
STARTCHAR 235
ENCODING 235
SWIDTH 8000 0
DWIDTH 8 0
BBX 8 16 0 -1
BITMAP
FF
FF
9F
9F
9F
9F
93
93
87
87
93
93
99
99
FF
FF
ENDCHAR
STARTCHAR 236
ENCODING 236
SWIDTH 8000 0
DWIDTH 8 0
BBX 8 16 0 -1
BITMAP
FF
FF
C7
C7
E7
E7
E7
E7
E7
E7
E7
E7
C3
C3
FF
FF
ENDCHAR
STARTCHAR 237
ENCODING 237
SWIDTH 8000 0
DWIDTH 8 0
BBX 8 16 0 -1
BITMAP
FF
FF
FF
FF
99
99
80
80
80
80
94
94
9C
9C
FF
FF
ENDCHAR
STARTCHAR 238
ENCODING 238
SWIDTH 8000 0
DWIDTH 8 0
BBX 8 16 0 -1
BITMAP
FF
FF
FF
FF
83
83
99
99
99
99
99
99
99
99
FF
FF
ENDCHAR
STARTCHAR 239
ENCODING 239
SWIDTH 8000 0
DWIDTH 8 0
BBX 8 16 0 -1
BITMAP
FF
FF
FF
FF
C3
C3
99
99
99
99
99
99
C3
C3
FF
FF
ENDCHAR
STARTCHAR 240
ENCODING 240
SWIDTH 8000 0
DWIDTH 8 0
BBX 8 16 0 -1
BITMAP
FF
FF
FF
FF
83
83
99
99
99
99
83
83
9F
9F
9F
9F
ENDCHAR
STARTCHAR 241
ENCODING 241
SWIDTH 8000 0
DWIDTH 8 0
BBX 8 16 0 -1
BITMAP
FF
FF
FF
FF
C1
C1
99
99
99
99
C1
C1
F9
F9
F9
F9
ENDCHAR
STARTCHAR 242
ENCODING 242
SWIDTH 8000 0
DWIDTH 8 0
BBX 8 16 0 -1
BITMAP
FF
FF
FF
FF
83
83
99
99
9F
9F
9F
9F
9F
9F
FF
FF
ENDCHAR
STARTCHAR 243
ENCODING 243
SWIDTH 8000 0
DWIDTH 8 0
BBX 8 16 0 -1
BITMAP
FF
FF
FF
FF
C1
C1
9F
9F
C3
C3
F9
F9
83
83
FF
FF
ENDCHAR
STARTCHAR 244
ENCODING 244
SWIDTH 8000 0
DWIDTH 8 0
BBX 8 16 0 -1
BITMAP
FF
FF
E7
E7
81
81
E7
E7
E7
E7
E7
E7
F1
F1
FF
FF
ENDCHAR
STARTCHAR 245
ENCODING 245
SWIDTH 8000 0
DWIDTH 8 0
BBX 8 16 0 -1
BITMAP
FF
FF
FF
FF
99
99
99
99
99
99
99
99
C1
C1
FF
FF
ENDCHAR
STARTCHAR 246
ENCODING 246
SWIDTH 8000 0
DWIDTH 8 0
BBX 8 16 0 -1
BITMAP
FF
FF
FF
FF
99
99
99
99
99
99
C3
C3
E7
E7
FF
FF
ENDCHAR
STARTCHAR 247
ENCODING 247
SWIDTH 8000 0
DWIDTH 8 0
BBX 8 16 0 -1
BITMAP
FF
FF
FF
FF
9C
9C
94
94
80
80
C1
C1
C9
C9
FF
FF
ENDCHAR
STARTCHAR 248
ENCODING 248
SWIDTH 8000 0
DWIDTH 8 0
BBX 8 16 0 -1
BITMAP
FF
FF
FF
FF
99
99
C3
C3
E7
E7
C3
C3
99
99
FF
FF
ENDCHAR
STARTCHAR 249
ENCODING 249
SWIDTH 8000 0
DWIDTH 8 0
BBX 8 16 0 -1
BITMAP
FF
FF
FF
FF
99
99
99
99
99
99
C1
C1
F3
F3
87
87
ENDCHAR
STARTCHAR 250
ENCODING 250
SWIDTH 8000 0
DWIDTH 8 0
BBX 8 16 0 -1
BITMAP
FF
FF
FF
FF
81
81
F3
F3
E7
E7
CF
CF
81
81
FF
FF
ENDCHAR
STARTCHAR 251
ENCODING 251
SWIDTH 8000 0
DWIDTH 8 0
BBX 8 16 0 -1
BITMAP
FF
FF
E7
E7
C3
C3
81
81
81
81
E7
E7
C3
C3
FF
FF
ENDCHAR
STARTCHAR 252
ENCODING 252
SWIDTH 8000 0
DWIDTH 8 0
BBX 8 16 0 -1
BITMAP
E7
E7
E7
E7
E7
E7
E7
E7
E7
E7
E7
E7
E7
E7
E7
E7
ENDCHAR
STARTCHAR 253
ENCODING 253
SWIDTH 8000 0
DWIDTH 8 0
BBX 8 16 0 -1
BITMAP
FF
FF
81
81
87
87
83
83
91
91
99
99
F9
F9
FF
FF
ENDCHAR
STARTCHAR 254
ENCODING 254
SWIDTH 8000 0
DWIDTH 8 0
BBX 8 16 0 -1
BITMAP
F7
F7
E7
E7
C7
C7
87
87
C7
C7
E7
E7
F7
F7
FF
FF
ENDCHAR
STARTCHAR 255
ENCODING 255
SWIDTH 8000 0
DWIDTH 8 0
BBX 8 16 0 -1
BITMAP
EF
EF
E7
E7
E3
E3
E1
E1
E3
E3
E7
E7
EF
EF
FF
FF
ENDCHAR
ENDFONT
